<?xml version="1.0" standalone="no"?>
<!DOCTYPE svg PUBLIC "-//W3C//DTD SVG 20010904//EN"
 "http://www.w3.org/TR/2001/REC-SVG-20010904/DTD/svg10.dtd">
<svg version="1.0" xmlns="http://www.w3.org/2000/svg"
 width="250.000000pt" height="250.000000pt" viewBox="0 0 250.000000 250.000000"
 preserveAspectRatio="xMidYMid meet">

<g transform="translate(0.000000,250.000000) scale(0.100000,-0.100000)"
fill="#000000" stroke="none">
<path d="M1160 2494 c-106 -12 -235 -40 -310 -66 -550 -194 -883 -704 -837
-1284 34 -433 291 -812 682 -1007 413 -205 902 -166 1281 102 318 224 518 613
516 1006 -1 479 -258 901 -676 1112 -107 54 -264 107 -361 122 -83 12 -245 21
-295 15z m123 -206 c16 -63 14 -88 -4 -55 -12 21 -49 23 -49 2 0 -8 -4 -15
-10 -15 -13 0 -13 15 1 65 16 62 17 65 32 65 9 0 20 -23 30 -62z m102 1 l11
-44 8 48 c8 55 27 55 20 -1 -13 -97 -30 -108 -50 -31 l-11 44 -7 -42 c-10 -53
-27 -57 -20 -5 13 97 30 108 49 31z m-358 14 c3 -7 -5 -11 -21 -10 -38 3 -36
-14 4 -27 57 -18 47 -83 -11 -74 -33 5 -36 27 -3 25 39 -3 42 20 3 30 -45 12
-60 39 -34 59 22 17 56 15 62 -3z m508 3 c14 -10 17 -21 12 -51 -9 -52 -27
-69 -66 -60 -23 5 -31 11 -27 23 3 10 10 36 16 60 12 45 30 54 65 28z m-637
-35 c8 -4 12 -20 10 -34 -1 -14 5 -34 16 -46 16 -17 16 -21 4 -21 -9 0 -21 7
-28 15 -19 23 -33 18 -26 -10 4 -14 2 -25 -4 -25 -5 0 -10 2 -10 5 0 2 -9 27
-20 55 l-20 51 23 9 c28 11 39 12 55 1z m912 -81 c0 -5 -10 -9 -22 -7 -17 1
-28 -8 -46 -41 -13 -23 -28 -40 -33 -36 -5 3 3 26 18 51 24 42 25 47 10 58 -9
7 -14 15 -11 18 9 8 84 -31 84 -43z m-1010 -11 c23 -44 18 -67 -17 -76 -20 -4
-30 0 -44 18 -32 40 -35 70 -10 90 29 23 47 15 71 -32z m-140 -34 c0 -5 -8
-10 -17 -10 -10 0 -19 -8 -21 -17 -3 -14 4 -17 40 -15 40 2 43 0 46 -25 4 -30
-28 -54 -56 -42 -14 6 -13 8 8 13 14 4 26 15 28 25 4 16 -1 18 -27 13 -17 -4
-38 -4 -46 -1 -21 8 -19 51 3 63 20 12 43 10 42 -4z m1235 -1 c14 -9 22 -20
19 -25 -3 -5 -16 -2 -29 7 -29 19 -45 1 -21 -25 24 -27 19 -35 -9 -17 -23 15
-26 15 -31 1 -4 -9 2 -25 11 -35 26 -29 14 -33 -20 -6 l-28 23 32 46 c35 52
41 54 76 31z m-1276 -158 c-5 -6 -24 -1 -48 12 -54 31 -60 27 -23 -11 18 -18
29 -36 26 -40 -8 -8 -83 73 -84 91 0 17 14 15 52 -8 49 -29 56 -24 20 13 -18
18 -29 36 -26 40 11 10 94 -87 83 -97z m1361 86 c0 -4 -16 -23 -35 -42 l-35
-34 20 -21 c30 -32 11 -39 -22 -8 l-28 27 42 43 c41 41 58 52 58 35z m-1530
-91 c0 -5 -7 -14 -15 -21 -12 -10 -13 -16 -4 -27 10 -11 15 -11 30 3 25 23 37
9 14 -16 -16 -18 -16 -20 -1 -26 10 -4 25 1 36 11 30 27 35 12 7 -21 l-24 -28
-29 21 c-16 12 -37 30 -47 41 -18 20 -18 21 0 46 18 26 33 33 33 17z m1639
-18 c26 -31 19 -44 -9 -18 -15 14 -23 16 -32 7 -9 -9 -7 -16 7 -32 21 -24 9
-27 -16 -4 -19 17 -39 12 -39 -10 0 -8 7 -19 15 -26 8 -7 12 -16 9 -21 -3 -5
-17 5 -31 22 l-26 31 44 38 c24 22 47 39 51 40 4 0 16 -12 27 -27z m-1709 -92
c0 -5 -7 -11 -15 -15 -15 -5 -21 -36 -7 -36 4 0 18 7 30 16 13 9 31 13 42 9
35 -11 20 -75 -17 -75 -7 0 -13 5 -13 10 0 6 7 10 15 10 8 0 15 9 15 20 0 24
-4 25 -40 4 -15 -10 -35 -14 -44 -11 -19 7 -21 48 -4 65 14 14 38 16 38 3z
m1785 -11 c9 -10 15 -26 12 -35 -9 -22 -30 -19 -22 4 9 30 -12 35 -50 11 -41
-25 -43 -32 -12 -53 l22 -16 -22 0 c-24 -1 -46 29 -38 51 6 15 64 56 81 57 6
1 19 -8 29 -19z m73 -138 c-2 -19 -14 -33 -40 -47 -45 -24 -71 -14 -76 29 -3
23 3 29 39 45 53 24 82 14 77 -27z m-1999 -99 c-7 -19 -7 -28 3 -34 15 -10 28
-2 28 16 0 8 5 17 12 21 8 5 9 -2 5 -23 -5 -27 -3 -32 18 -37 14 -4 25 -11 25
-17 0 -7 -10 -9 -27 -4 -46 11 -93 34 -93 44 0 20 20 61 30 61 6 0 6 -9 -1
-27z m2041 15 c0 -6 -15 -25 -32 -41 -20 -17 -26 -26 -15 -23 50 16 70 18 63
8 -9 -16 -104 -45 -118 -36 -8 5 1 18 28 42 21 19 31 31 21 28 -11 -3 -31 -9
-45 -12 -40 -10 -16 12 33 30 50 18 65 19 65 4z m44 -139 c3 -17 6 -39 6 -48
-1 -14 -2 -14 -14 2 -12 15 -20 16 -57 8 -55 -13 -59 -13 -59 -2 0 5 23 14 50
21 38 9 50 16 50 31 0 31 17 22 24 -12z m-2062 11 c40 -12 53 -32 38 -61 -12
-21 -52 -25 -94 -9 -28 10 -35 47 -14 68 15 15 23 15 70 2z m2082 -144 c11
-46 -20 -75 -57 -54 -11 5 -24 5 -36 -2 -25 -13 -31 -13 -31 0 0 6 11 16 25
22 14 6 25 15 25 20 0 4 -11 8 -25 8 -37 0 -31 18 8 23 77 9 85 8 91 -17z
m-2106 -129 c44 -12 56 -27 22 -27 -12 0 -39 -9 -60 -20 -30 -15 -40 -17 -40
-7 0 7 12 18 28 23 l27 10 -32 17 c-38 20 -44 33 -10 22 12 -4 41 -12 65 -18z
m2100 14 c8 -5 12 -21 10 -37 -3 -27 -6 -29 -51 -32 -27 -2 -55 2 -63 9 -17
14 -18 41 -2 57 14 14 86 16 106 3z m-2048 -118 c0 -4 -12 -17 -27 -30 l-28
-22 33 -1 c17 0 32 -4 32 -9 0 -9 -57 -21 -103 -21 -26 0 -28 2 -25 38 3 36 4
37 45 37 23 0 45 3 49 8 9 9 24 9 24 0z m2050 -25 c0 -6 -23 -7 -55 -3 -54 7
-55 7 -55 -19 0 -14 -4 -26 -10 -26 -11 0 -14 39 -5 62 5 12 17 13 65 5 33 -5
60 -14 60 -19z m-2039 -98 c11 -6 19 -21 19 -36 0 -19 -8 -28 -35 -40 -50 -21
-74 -18 -87 11 -9 20 -9 28 1 38 9 9 56 31 79 36 2 1 12 -4 23 -9z m1109 -90
c0 -6 -60 -10 -160 -10 -100 0 -160 4 -160 10 0 6 60 10 160 10 100 0 160 -4
160 -10z m780 -29 c0 -5 -7 -11 -15 -15 -17 -6 -21 -36 -4 -36 6 0 22 9 36 20
19 15 30 17 44 9 33 -17 17 -69 -20 -69 -13 1 -12 3 3 15 12 9 16 20 12 31 -6
15 -9 15 -29 -5 -45 -41 -95 -12 -67 39 11 20 40 28 40 11z m-1830 -20 c0 -4
-22 -18 -49 -29 -41 -17 -49 -24 -44 -41 9 -34 -7 -24 -23 14 -18 44 -18 66 0
42 13 -16 15 -16 57 3 49 22 59 24 59 11z m26 -87 c-11 -28 3 -56 25 -49 10 4
19 2 19 -3 0 -8 -100 -42 -123 -42 -21 0 -2 40 35 72 49 43 53 44 44 22z
m1739 -24 c3 -5 26 -10 51 -10 24 0 44 -4 44 -10 0 -5 -13 -10 -30 -10 -34 0
-37 -6 -13 -32 9 -10 13 -21 10 -25 -6 -5 -97 84 -97 94 0 8 30 2 35 -7z
m-1665 -75 c0 -2 -5 -16 -12 -30 -14 -32 -4 -43 21 -21 11 10 22 13 25 8 6 -9
-91 -89 -98 -81 -28 37 -34 54 -25 71 5 10 20 18 34 18 15 0 26 7 30 20 5 17
25 29 25 15z m1615 -4 c3 -5 -4 -12 -15 -16 -20 -6 -26 -25 -14 -38 4 -4 19 1
35 10 23 14 30 14 43 4 31 -26 12 -71 -28 -71 -20 0 -20 1 3 19 34 26 18 47
-19 24 -24 -14 -31 -14 -44 -4 -21 17 -20 40 1 63 18 20 29 23 38 9z m-1051
-67 c28 -11 17 -24 -14 -17 -23 4 -30 2 -30 -10 0 -8 14 -20 30 -26 36 -12 42
-54 10 -71 -21 -11 -60 2 -60 20 0 13 13 13 27 -1 6 -6 16 -8 22 -5 20 13 11
31 -19 43 -22 8 -30 18 -30 36 0 32 27 45 64 31z m175 -8 c8 -9 8 -16 2 -20
-5 -4 -12 -2 -16 4 -9 15 -35 12 -35 -4 0 -7 14 -19 30 -26 54 -22 29 -88 -28
-74 -11 4 -23 12 -26 20 -6 17 15 19 31 3 12 -12 33 -4 33 11 0 5 -13 16 -30
25 -29 15 -41 51 -23 68 11 12 50 7 62 -7z m181 5 c0 -5 -9 -11 -21 -14 -18
-5 -20 -12 -18 -56 2 -28 -1 -51 -7 -51 -5 0 -10 25 -12 55 -3 47 -6 55 -23
55 -11 0 -17 5 -14 10 8 12 95 13 95 1z m100 -21 c0 -16 4 -30 9 -30 5 0 14
14 21 30 7 17 19 30 26 30 11 0 11 -6 -2 -33 -15 -31 -15 -36 0 -65 13 -26 14
-32 3 -32 -8 0 -19 11 -25 25 -6 14 -16 25 -22 25 -5 0 -10 -11 -10 -25 0 -14
-4 -25 -10 -25 -6 0 -10 28 -10 65 0 37 4 65 10 65 6 0 10 -13 10 -30z m-926
-16 c23 -22 20 -34 -16 -71 -34 -35 -56 -41 -76 -21 -20 20 -13 49 19 79 35
33 51 36 73 13z m1446 -29 c26 -27 37 -32 47 -23 29 24 25 -4 -5 -34 -17 -18
-35 -29 -39 -24 -4 4 -1 11 7 16 12 7 8 16 -23 48 -20 21 -37 41 -37 45 0 15
18 5 50 -28z m-1360 -52 c14 -9 27 -18 29 -19 2 -2 -13 -26 -34 -53 -36 -47
-39 -49 -61 -35 -32 22 -36 42 -14 64 11 11 20 24 20 28 0 9 21 32 30 32 3 0
17 -8 30 -17z m1294 -28 l37 -45 -28 -24 c-15 -13 -32 -22 -37 -19 -5 3 2 14
15 24 19 14 22 20 12 30 -10 10 -16 10 -25 1 -7 -7 -19 -12 -27 -12 -11 0 -9
6 8 23 17 19 19 26 9 35 -9 7 -18 6 -32 -4 -11 -8 -25 -14 -30 -14 -13 1 41
50 53 50 5 0 25 -20 45 -45z m-1221 -44 c-6 -22 23 -36 42 -21 7 6 16 7 18 2
8 -13 -88 -91 -101 -83 -9 5 -8 20 4 57 9 27 18 55 20 62 6 20 23 4 17 -17z
m1125 -31 c32 -51 28 -70 -9 -50 -18 10 -20 9 -17 -11 6 -40 -19 -31 -52 21
-18 28 -30 54 -26 57 7 8 9 7 35 -37 18 -30 21 -32 21 -12 0 24 10 28 28 10
19 -19 13 5 -8 32 -21 27 -25 40 -11 40 4 0 22 -22 39 -50z m-993 -22 c14 -6
25 -15 25 -20 0 -18 -43 -108 -51 -108 -14 0 -11 18 12 62 12 23 17 44 12 45
-6 2 -19 10 -29 18 -23 17 -5 19 31 3z m865 -9 c0 -6 -9 -9 -20 -6 -23 6 -51
-20 -29 -27 8 -3 25 -6 38 -8 32 -4 49 -31 32 -52 -15 -18 -61 -22 -61 -6 0 6
6 10 13 9 49 -6 47 23 -3 31 -41 6 -60 31 -41 54 15 18 71 22 71 5z"/>
<path d="M1247 2313 c-12 -12 -7 -43 7 -43 9 0 12 8 8 25 -5 27 -6 28 -15 18z"/>
<path d="M1497 2293 c-3 -5 -8 -25 -12 -46 -6 -30 -4 -37 9 -37 17 0 39 43 34
68 -3 18 -24 27 -31 15z"/>
<path d="M850 2251 c0 -22 13 -39 26 -34 22 8 17 43 -6 43 -11 0 -20 -4 -20
-9z"/>
<path d="M734 2196 c-8 -22 25 -78 43 -74 24 5 25 19 3 56 -21 34 -37 41 -46
18z"/>
<path d="M2168 1729 c-40 -20 -48 -36 -24 -45 19 -7 76 23 76 41 0 23 -13 24
-52 4z"/>
<path d="M197 1486 c-11 -28 72 -52 89 -25 9 16 -6 26 -47 34 -28 5 -38 3 -42
-9z"/>
<path d="M2290 1350 c0 -13 7 -20 20 -20 13 0 20 7 20 20 0 13 -7 20 -20 20
-13 0 -20 -7 -20 -20z"/>
<path d="M2245 1230 c-11 -18 6 -30 44 -30 42 0 52 6 44 26 -6 16 -78 20 -88
4z"/>
<path d="M187 1103 c-16 -15 -5 -33 19 -33 20 0 25 4 20 16 -3 9 -6 18 -6 20
0 7 -26 5 -33 -3z"/>
<path d="M243 985 c-55 -23 -37 -53 22 -37 20 6 30 15 30 27 0 24 -13 27 -52
10z"/>
<path d="M334 728 c-18 -20 -18 -21 -1 -15 10 4 23 7 28 7 5 0 9 7 9 15 0 21
-14 19 -36 -7z"/>
<path d="M387 623 c-3 -5 -2 -15 3 -22 10 -17 43 -6 38 12 -6 15 -34 22 -41
10z"/>
<path d="M496 549 c-14 -11 -26 -27 -26 -34 0 -28 23 -27 52 3 17 16 27 35 24
41 -10 16 -20 14 -50 -10z"/>
<path d="M603 474 c-8 -21 13 -42 28 -27 13 13 5 43 -11 43 -6 0 -13 -7 -17
-16z"/>
<path d="M566 431 c-3 -5 1 -15 10 -22 13 -10 17 -10 24 1 5 8 6 18 4 22 -7
11 -31 10 -38 -1z"/>
<path d="M696 375 c-11 -30 -6 -40 11 -22 12 12 14 20 6 28 -7 7 -12 6 -17 -6z"/>
</g>
</svg>
